HIERARCHY
ROOT reference
{
  OFFSET 0 0 0
  CHANNELS 6 Xposition Yposition Zposition Zrotation Xrotation Yrotation
  JOINT Hips
  {
    OFFSET 10.9747 91.4289 98.8503
    CHANNELS 6 Xposition Yposition Zposition Zrotation Xrotation Yrotation
    JOINT Spine
    {
      OFFSET 0 7.86299 0
      CHANNELS 6 Xposition Yposition Zposition Zrotation Xrotation Yrotation
      JOINT Spine1
      {
        OFFSET 0 22.6654 0
        CHANNELS 6 Xposition Yposition Zposition Zrotation Xrotation Yrotation
        JOINT Neck
        {
          OFFSET 0 22.5723 2.05203
          CHANNELS 6 Xposition Yposition Zposition Zrotation Xrotation Yrotation
          JOINT Head
          {
            OFFSET 0 13.4246 -1.9178
            CHANNELS 6 Xposition Yposition Zposition Zrotation Xrotation Yrotation
            End Site
            {
              OFFSET 0 23.9725 0
            }
          }
        }
        JOINT LeftShoulder
        {
          OFFSET 3.7941 20.1358 -0.319195
          CHANNELS 6 Xposition Yposition Zposition Zrotation Xrotation Yrotation
          JOINT LeftArm
          {
            OFFSET 12.7665 0 0
            CHANNELS 6 Xposition Yposition Zposition Zrotation Xrotation Yrotation
            JOINT LeftForeArm
            {
              OFFSET 28.396 0 0
              CHANNELS 6 Xposition Yposition Zposition Zrotation Xrotation Yrotation
              JOINT LeftHand
              {
                OFFSET 28.7929 0 0
                CHANNELS 6 Xposition Yposition Zposition Zrotation Xrotation Yrotation
                End Site
                {
                  OFFSET 14.3835 0 0
                }
              }
            }
          }
        }
        JOINT RightShoulder
        {
          OFFSET -3.85764 20.1358 -0.319195
          CHANNELS 6 Xposition Yposition Zposition Zrotation Xrotation Yrotation
          JOINT RightArm
          {
            OFFSET -12.7665 0 0
            CHANNELS 6 Xposition Yposition Zposition Zrotation Xrotation Yrotation
            JOINT RightForeArm
            {
              OFFSET -28.396 0 0
              CHANNELS 6 Xposition Yposition Zposition Zrotation Xrotation Yrotation
              JOINT RightHand
              {
                OFFSET -28.7929 0 0
                CHANNELS 6 Xposition Yposition Zposition Zrotation Xrotation Yrotation
                End Site
                {
                  OFFSET -14.3835 0 0
                }
              }
            }
          }
        }
      }
    }
    JOINT LeftUpLeg
    {
      OFFSET 9.58901 0 0
      CHANNELS 6 Xposition Yposition Zposition Zrotation Xrotation Yrotation
      JOINT LeftLeg
      {
        OFFSET 0 -41.7092 0
        CHANNELS 6 Xposition Yposition Zposition Zrotation Xrotation Yrotation
        JOINT LeftFoot
        {
          OFFSET 0 -41.5308 0
          CHANNELS 6 Xposition Yposition Zposition Zrotation Xrotation Yrotation
          JOINT LeftToeBase
          {
            OFFSET 0 -6.23286 14.3835
            CHANNELS 6 Xposition Yposition Zposition Zrotation Xrotation Yrotation
            End Site
            {
              OFFSET 0 0 3.8356
            }
          }
        }
      }
    }
    JOINT RightUpLeg
    {
      OFFSET -9.58901 0 0
      CHANNELS 6 Xposition Yposition Zposition Zrotation Xrotation Yrotation
      JOINT RightLeg
      {
        OFFSET 0 -41.7092 0
        CHANNELS 6 Xposition Yposition Zposition Zrotation Xrotation Yrotation
        JOINT RightFoot
        {
          OFFSET 0 -41.5308 0
          CHANNELS 6 Xposition Yposition Zposition Zrotation Xrotation Yrotation
          JOINT RightToeBase
          {
            OFFSET 0 -6.23286 14.3835
            CHANNELS 6 Xposition Yposition Zposition Zrotation Xrotation Yrotation
            End Site
            {
              OFFSET 0 0 3.8356
            }
          }
        }
      }
    }
  }
}
MOTION
Frames:	4
Frame Time:	0.004
0 0 0 0 0 -0 -16.9903 86.9045 -102.646 -1.61184 -5.06836 -3.25279 0 7.86299 1.42109e-014 -0.50431 -2.46015 3.20208 -3.55271e-015 22.6654 1.42109e-014 -0.325807 7.63509 3.23464 -1.77636e-015 22.5723 2.05203 0.239492 28.3768 -4.03053 -7.10543e-015 13.4246 -1.9178 3.84903 13.2004 -4.06434 3.7941 20.1358 -0.319195 -20.4152 32.979 13.1766 12.7665 1.42109e-014 0 -34.9807 19.7244 -22.0326 28.396 0 0 -3.43352 -11.8809 -19.5751 28.7929 -7.10543e-015 0 5.77986 -11.7754 13.8057 -3.85764 20.1358 -0.319195 10.04 41.1016 7.81487 -12.7665 2.84217e-014 0 21.8193 21.9638 26.6952 -28.396 -1.42109e-014 -2.84217e-014 -4.02433 -15.9402 26.7325 -28.7929 0 0 -1.39251 -14.9652 -4.48315 9.58901 -1.42109e-014 0 0.181903 -10.9603 -6.77651 0 -41.7092 0 -7.64265 11.9939 -3.12173 0 -41.5308 0 12.9109 0.521962 26.1495 1.77636e-015 -6.23286 14.3835 7.95139e-016 0 -1.59028e-015 -9.58901 -1.42109e-014 0 -10.3294 -17.825 -0.55857 0 -41.7092 7.10543e-015 22.6597 71.9602 -13.4185 0 -41.5308 0 5.61483 -18.2602 -6.59397 -7.10543e-015 -6.23286 14.3835 1.59028e-015 0 1.59028e-015 
0 0 0 0 0 -0 -16.9498 87.0192 -102.412 -1.8436 -5.05178 -3.15485 0 7.86299 -1.42109e-014 -0.32463 -2.35306 3.03009 3.55271e-015 22.6654 -1.42109e-014 -0.300223 7.63922 3.05679 0 22.5723 2.05203 0.191008 28.4234 -3.93305 -3.55271e-015 13.4246 -1.9178 3.78558 13.2062 -3.97033 3.7941 20.1358 -0.319195 -20.4295 32.9867 13.1034 12.7665 1.42109e-014 -5.68434e-014 -34.6314 20.2028 -22.1748 28.396 7.10543e-015 0 -3.3205 -12.0265 -19.8677 28.7929 7.10543e-015 0 5.50982 -11.961 13.4213 -3.85764 20.1358 -0.319195 10.037 41.0925 7.80096 -12.7665 0 0 21.7225 22.0583 26.7239 -28.396 0 0 -4.13518 -16.0838 26.7481 -28.7929 0 0 -1.35356 -15.0854 -4.44239 9.58901 1.42109e-014 -1.42109e-014 0.344485 -10.7325 -6.71004 0 -41.7092 0 -7.54932 11.8732 -3.39695 7.10543e-015 -41.5308 0 12.7848 0.525783 26.1992 -1.77636e-015 -6.23286 14.3835 1.39149e-015 -7.95139e-016 -1.59028e-015 -9.58901 0 0 -10.3618 -18.9269 -0.720861 -7.10543e-015 -41.7092 1.42109e-014 24.1103 72.9955 -15.1777 7.10543e-015 -41.5308 0 5.18706 -19.1584 -6.27848 -1.42109e-014 -6.23286 14.3835 8.82781e-032 -3.18055e-015 1.59028e-015 
0 0 0 0 0 -0 -16.9006 87.1492 -102.155 -2.0399 -5.09283 -3.11296 3.55271e-015 7.86299 0 -0.173727 -2.24977 2.89211 0 22.6654 1.42109e-014 -0.259711 7.7016 2.91301 0 22.5723 2.05203 0.104494 28.4568 -3.84101 3.55271e-015 13.4246 -1.9178 3.73161 13.2522 -3.88772 3.7941 20.1358 -0.319195 -20.4491 32.9852 13.0117 12.7665 7.10543e-015 0 -34.3185 20.6717 -22.2879 28.396 0 2.84217e-014 -3.16652 -12.1139 -20.1974 28.7929 0 -1.42109e-014 5.17992 -12.084 13.0916 -3.85764 20.1358 -0.319195 9.97417 41.0325 7.83359 -12.7665 1.42109e-014 0 21.7464 21.9804 26.7141 -28.396 0 2.84217e-014 -4.09765 -16.1021 26.7533 -28.7929 1.42109e-014 0 -1.4576 -15.1089 -4.39128 9.58901 1.42109e-014 1.42109e-014 0.46018 -10.3784 -6.61655 0 -41.7092 0 -7.42611 11.6553 -3.65747 0 -41.5308 0 12.6406 0.602018 26.2771 0 -6.23286 14.3835 -1.59028e-015 7.95139e-016 -3.18055e-015 -9.58901 0 0 -10.4267 -20.0268 -0.79278 7.10543e-015 -41.7092 0 26.4451 73.9498 -17.4712 7.10543e-015 -41.5308 0 4.3605 -19.8209 -6.81746 0 -6.23286 14.3835 1.76556e-031 6.36111e-015 -1.59028e-015 
0 0 0 0 0 -0 -16.8554 87.2989 -101.863 -2.30521 -5.20487 -2.9746 0 7.86299 0 0.072245 -2.14296 2.71002 0 22.6654 0 -0.286454 7.83137 2.72828 -3.55271e-015 22.5723 2.05203 0.0990901 28.4821 -3.77423 -3.55271e-015 13.4246 -1.9178 3.64154 13.3412 -3.82411 3.7941 20.1358 -0.319195 -20.4495 32.9747 12.9576 12.7665 0 0 -33.8074 21.4906 -22.4624 28.396 0 2.84217e-014 -2.90808 -12.3633 -20.6076 28.7929 -7.10543e-015 0 4.72076 -12.3695 12.6259 -3.85764 20.1358 -0.319195 9.99671 41.1053 7.7843 -12.7665 0 2.84217e-014 21.71 21.8323 26.8098 -28.396 7.10543e-015 0 -4.18439 -16.0897 26.6837 -28.7929 1.42109e-014 0 -1.33854 -15.0868 -4.09898 9.58901 2.84217e-014 0 0.618598 -9.91512 -6.6552 -3.55271e-015 -41.7092 0 -7.28898 11.3882 -3.86732 0 -41.5308 0 12.398 0.660438 26.3453 -1.77636e-015 -6.23286 14.3835 3.97569e-016 -7.95139e-016 -0 -9.58901 2.84217e-014 -2.84217e-014 -10.4268 -20.9192 -1.11177 7.10543e-015 -41.7092 0 27.1858 75.0032 -18.3996 7.10543e-015 -41.5308 -1.42109e-014 4.43254 -20.5246 -6.2133 7.10543e-015 -6.23286 14.3835 0 0 -0 
